<svg xmlns="http://www.w3.org/2000/svg" version="1.1" viewBox="0 0 800 800">
  <defs>
    <linearGradient x1="50%" y1="0%" x2="50%" y2="100%" id="ffflurry-grad" gradientTransform="rotate(270)">
      <stop stop-color="hsl(37, 86%, 18%)" stop-opacity="1" offset="0%"></stop>
      <stop stop-color="hsl(1, 69%, 29%)" stop-opacity="1" offset="45%"></stop>
      <stop stop-color="hsl(118, 43%, 61%)" stop-opacity="1" offset="100%"></stop>
    </linearGradient>
  </defs>
  <rect width="100%" height="100%" fill="hsl(37, 86%, 18%)"></rect>
<g fill="hsl(30, 100%, 40%)"><rect width="314" height="6" x="-126" y="754" rx="3" transform="rotate(21, 31, 757)" opacity="0.57"></rect><rect width="392" height="6" x="358" y="320" rx="3" transform="rotate(21, 554, 323)" opacity="0.88"></rect><rect width="322" height="6" x="339" y="401" rx="3" transform="rotate(21, 500, 404)" opacity="0.99"></rect><rect width="209" height="6" x="-55.5" y="663" rx="3" transform="rotate(21, 49, 666)" opacity="0.60"></rect><rect width="128" height="6" x="70" y="30" rx="3" transform="rotate(21, 134, 33)" opacity="0.52"></rect><rect width="76" height="6" x="-7" y="332" rx="3" transform="rotate(21, 31, 335)" opacity="0.69"></rect><rect width="533" height="6" x="32.5" y="419" rx="3" transform="rotate(21, 299, 422)" opacity="0.54"></rect><rect width="474" height="6" x="-12" y="339" rx="3" transform="rotate(21, 225, 342)" opacity="0.25"></rect><rect width="83" height="6" x="4.5" y="195" rx="3" transform="rotate(21, 46, 198)" opacity="0.59"></rect><rect width="59" height="6" x="174.5" y="45" rx="3" transform="rotate(21, 204, 48)" opacity="0.37"></rect><rect width="352" height="6" x="123" y="45" rx="3" transform="rotate(21, 299, 48)" opacity="0.12"></rect><rect width="113" height="6" x="474.5" y="119" rx="3" transform="rotate(21, 531, 122)" opacity="0.13"></rect><rect width="378" height="6" x="190" y="645" rx="3" transform="rotate(21, 379, 648)" opacity="0.63"></rect><rect width="89" height="6" x="601.5" y="268" rx="3" transform="rotate(21, 646, 271)" opacity="0.46"></rect><rect width="410" height="6" x="553" y="249" rx="3" transform="rotate(21, 758, 252)" opacity="0.18"></rect><rect width="287" height="6" x="-38.5" y="766" rx="3" transform="rotate(21, 105, 769)" opacity="0.60"></rect><rect width="352" height="6" x="94" y="671" rx="3" transform="rotate(21, 270, 674)" opacity="0.36"></rect><rect width="111" height="6" x="-32.5" y="72" rx="3" transform="rotate(21, 23, 75)" opacity="0.69"></rect><rect width="277" height="6" x="582.5" y="167" rx="3" transform="rotate(21, 721, 170)" opacity="0.88"></rect><rect width="128" height="6" x="678" y="652" rx="3" transform="rotate(21, 742, 655)" opacity="0.41"></rect><rect width="329" height="6" x="35.5" y="486" rx="3" transform="rotate(21, 200, 489)" opacity="0.11"></rect><rect width="492" height="6" x="-154" y="573" rx="3" transform="rotate(21, 92, 576)" opacity="0.28"></rect><rect width="294" height="6" x="410" y="496" rx="3" transform="rotate(21, 557, 499)" opacity="0.38"></rect><rect width="322" height="6" x="141" y="246" rx="3" transform="rotate(21, 302, 249)" opacity="0.29"></rect><rect width="77" height="6" x="576.5" y="30" rx="3" transform="rotate(21, 615, 33)" opacity="0.74"></rect><rect width="71" height="6" x="714.5" y="516" rx="3" transform="rotate(21, 750, 519)" opacity="0.92"></rect><rect width="235" height="6" x="96.5" y="741" rx="3" transform="rotate(21, 214, 744)" opacity="0.43"></rect><rect width="268" height="6" x="223" y="750" rx="3" transform="rotate(21, 357, 753)" opacity="0.24"></rect><rect width="503" height="6" x="-21.5" y="579" rx="3" transform="rotate(21, 230, 582)" opacity="0.87"></rect><rect width="523" height="6" x="487.5" y="369" rx="3" transform="rotate(21, 749, 372)" opacity="0.26"></rect><rect width="287" height="6" x="6.5" y="136" rx="3" transform="rotate(21, 150, 139)" opacity="0.31"></rect><rect width="568" height="6" x="452" y="57" rx="3" transform="rotate(21, 736, 60)" opacity="0.78"></rect><rect width="56" height="6" x="492" y="741" rx="3" transform="rotate(21, 520, 744)" opacity="0.96"></rect><rect width="313" height="6" x="358.5" y="205" rx="3" transform="rotate(21, 515, 208)" opacity="0.23"></rect><rect width="322" height="6" x="-20" y="693" rx="3" transform="rotate(21, 141, 696)" opacity="0.32"></rect><rect width="318" height="6" x="11" y="226" rx="3" transform="rotate(21, 170, 229)" opacity="0.49"></rect><rect width="571" height="6" x="111.5" y="385" rx="3" transform="rotate(21, 397, 388)" opacity="0.51"></rect><rect width="198" height="6" x="553" y="515" rx="3" transform="rotate(21, 652, 518)" opacity="0.56"></rect><rect width="73" height="6" x="-0.5" y="486" rx="3" transform="rotate(21, 36, 489)" opacity="0.36"></rect><rect width="487" height="6" x="211.5" y="519" rx="3" transform="rotate(21, 455, 522)" opacity="0.82"></rect><rect width="118" height="6" x="395" y="112" rx="3" transform="rotate(21, 454, 115)" opacity="0.36"></rect><rect width="385" height="6" x="458.5" y="407" rx="3" transform="rotate(21, 651, 410)" opacity="0.34"></rect><rect width="471" height="6" x="180.5" y="263" rx="3" transform="rotate(21, 416, 266)" opacity="0.44"></rect><rect width="305" height="6" x="190.5" y="563" rx="3" transform="rotate(21, 343, 566)" opacity="0.21"></rect><rect width="243" height="6" x="575.5" y="750" rx="3" transform="rotate(21, 697, 753)" opacity="0.16"></rect><rect width="53" height="6" x="334.5" y="493" rx="3" transform="rotate(21, 361, 496)" opacity="0.89"></rect><rect width="461" height="6" x="21.5" y="144" rx="3" transform="rotate(21, 252, 147)" opacity="0.92"></rect><rect width="101" height="6" x="40.5" y="102" rx="3" transform="rotate(21, 91, 105)" opacity="0.08"></rect><rect width="114" height="6" x="564" y="625" rx="3" transform="rotate(21, 621, 628)" opacity="0.79"></rect><rect width="211" height="6" x="-32.5" y="415" rx="3" transform="rotate(21, 73, 418)" opacity="0.12"></rect><rect width="393" height="6" x="426.5" y="133" rx="3" transform="rotate(21, 623, 136)" opacity="0.82"></rect><rect width="51" height="6" x="38.5" y="28" rx="3" transform="rotate(21, 64, 31)" opacity="0.44"></rect><rect width="120" height="6" x="478" y="49" rx="3" transform="rotate(21, 538, 52)" opacity="0.72"></rect><rect width="47" height="6" x="83.5" y="299" rx="3" transform="rotate(21, 107, 302)" opacity="0.93"></rect><rect width="74" height="6" x="108" y="420" rx="3" transform="rotate(21, 145, 423)" opacity="0.20"></rect><rect width="170" height="6" x="413" y="626" rx="3" transform="rotate(21, 498, 629)" opacity="0.53"></rect><rect width="471" height="6" x="134.5" y="115" rx="3" transform="rotate(21, 370, 118)" opacity="0.86"></rect><rect width="176" height="6" x="350" y="26" rx="3" transform="rotate(21, 438, 29)" opacity="0.28"></rect></g></svg>