<svg xmlns="http://www.w3.org/2000/svg" version="1.1" xmlns:xlink="http://www.w3.org/1999/xlink" xmlns:svgjs="http://svgjs.dev/svgjs" viewBox="0 0 800 800" opacity="0.54"><defs><linearGradient x1="50%" y1="0%" x2="50%" y2="100%" id="rrreflection-grad"><stop stop-color="hsla(28, 54%, 35%, 1.00)" stop-opacity="1" offset="45%"></stop><stop stop-color="hsla(8, 88%, 24%, 0.44)" stop-opacity="1" offset="100%"></stop></linearGradient><linearGradient x1="50%" y1="0%" x2="50%" y2="100%" id="rrreflection-grad-2"><stop stop-color="hsla(8, 88%, 24%, 0.44)" stop-opacity="1" offset="0%"></stop><stop stop-color="hsla(28, 54%, 35%, 1.00)" stop-opacity="1" offset="45%"></stop></linearGradient><linearGradient gradientTransform="rotate(270)" x1="50%" y1="0%" x2="50%" y2="100%" id="rrreflection-grad-3"><stop stop-color="hsla(28, 54%, 35%, 1.00)" stop-opacity="1" offset="45%"></stop><stop stop-color="hsla(8, 88%, 24%, 0.44)" stop-opacity="1" offset="100%"></stop></linearGradient><linearGradient gradientTransform="rotate(270)" x1="50%" y1="0%" x2="50%" y2="100%" id="rrreflection-grad-4"><stop stop-color="hsla(8, 88%, 24%, 0.44)" stop-opacity="1" offset="0%"></stop><stop stop-color="hsla(28, 54%, 35%, 1.00)" stop-opacity="1" offset="45%"></stop></linearGradient></defs><g stroke-width="1" stroke="url(#rrreflection-grad)" fill="none"><circle r="382.5" cx="50%" cy="0"></circle><circle r="357" cx="50%" cy="0"></circle><circle r="331.5" cx="50%" cy="0"></circle><circle r="306" cx="50%" cy="0"></circle><circle r="280.5" cx="50%" cy="0"></circle><circle r="255" cx="50%" cy="0"></circle><circle r="229.5" cx="50%" cy="0"></circle><circle r="204" cx="50%" cy="0"></circle><circle r="178.5" cx="50%" cy="0"></circle><circle r="153" cx="50%" cy="0"></circle><circle r="127.5" cx="50%" cy="0"></circle><circle r="102" cx="50%" cy="0"></circle><circle r="76.5" cx="50%" cy="0"></circle><circle r="51" cx="50%" cy="0"></circle><circle r="25.5" cx="50%" cy="0"></circle></g><g stroke-width="1" stroke="url(#rrreflection-grad-2)" fill="none"><circle r="382.5" cx="50%" cy="100%"></circle><circle r="357" cx="50%" cy="100%"></circle><circle r="331.5" cx="50%" cy="100%"></circle><circle r="306" cx="50%" cy="100%"></circle><circle r="280.5" cx="50%" cy="100%"></circle><circle r="255" cx="50%" cy="100%"></circle><circle r="229.5" cx="50%" cy="100%"></circle><circle r="204" cx="50%" cy="100%"></circle><circle r="178.5" cx="50%" cy="100%"></circle><circle r="153" cx="50%" cy="100%"></circle><circle r="127.5" cx="50%" cy="100%"></circle><circle r="102" cx="50%" cy="100%"></circle><circle r="76.5" cx="50%" cy="100%"></circle><circle r="51" cx="50%" cy="100%"></circle><circle r="25.5" cx="50%" cy="100%"></circle></g><g stroke-width="1" stroke="url(#rrreflection-grad-3)" fill="none"><circle r="382.5" cx="0" cy="50%"></circle><circle r="357" cx="0" cy="50%"></circle><circle r="331.5" cx="0" cy="50%"></circle><circle r="306" cx="0" cy="50%"></circle><circle r="280.5" cx="0" cy="50%"></circle><circle r="255" cx="0" cy="50%"></circle><circle r="229.5" cx="0" cy="50%"></circle><circle r="204" cx="0" cy="50%"></circle><circle r="178.5" cx="0" cy="50%"></circle><circle r="153" cx="0" cy="50%"></circle><circle r="127.5" cx="0" cy="50%"></circle><circle r="102" cx="0" cy="50%"></circle><circle r="76.5" cx="0" cy="50%"></circle><circle r="51" cx="0" cy="50%"></circle><circle r="25.5" cx="0" cy="50%"></circle></g><g stroke-width="1" stroke="url(#rrreflection-grad-4)" fill="none"><circle r="382.5" cx="100%" cy="50%"></circle><circle r="357" cx="100%" cy="50%"></circle><circle r="331.5" cx="100%" cy="50%"></circle><circle r="306" cx="100%" cy="50%"></circle><circle r="280.5" cx="100%" cy="50%"></circle><circle r="255" cx="100%" cy="50%"></circle><circle r="229.5" cx="100%" cy="50%"></circle><circle r="204" cx="100%" cy="50%"></circle><circle r="178.5" cx="100%" cy="50%"></circle><circle r="153" cx="100%" cy="50%"></circle><circle r="127.5" cx="100%" cy="50%"></circle><circle r="102" cx="100%" cy="50%"></circle><circle r="76.5" cx="100%" cy="50%"></circle><circle r="51" cx="100%" cy="50%"></circle><circle r="25.5" cx="100%" cy="50%"></circle></g></svg>